<svg xmlns:xlink="http://www.w3.org/1999/xlink" width="126" height="23" viewBox="0 0 126 23" fill="none" xmlns="http://www.w3.org/2000/svg">
<path d="M42 5H35V0H55V4H47.803V22H42V5Z" fill="#1A98C0"/>
<path d="M67.0002 5.00041V22.0004L61.1212 22.0005V20.2025C60.5012 20.8845 59.7572 21.4011 58.8892 21.7525C58.0212 22.1038 57.1015 22.2795 56.1302 22.2795C53.9602 22.2795 52.2242 21.6388 50.9222 20.3575C49.6408 19.0761 49.0002 17.1541 49.0002 14.5915V5.19846H54.8902V13.6305C54.8902 14.8911 55.1278 15.8108 55.6032 16.3895C56.0785 16.9681 56.7708 17.2575 57.6802 17.2575C58.6102 17.2575 59.3645 16.9371 59.9432 16.2965C60.5425 15.6351 60.8422 14.6328 60.8422 13.2895V5.00041H67.0002Z" fill="#1A98C0"/>
<path d="M78.9122 21.3185C78.4162 21.6285 77.8065 21.8661 77.0832 22.0315C76.3805 22.1968 75.6262 22.2795 74.8202 22.2795C72.6295 22.2795 70.9452 21.7421 69.7672 20.6675C68.5892 19.5928 68.0002 17.9911 68.0002 15.8625V10.2205V5.81846V1.44746H73.8902V5.81846H77.0002V10.2205H73.8902V15.8005C73.8902 16.3998 74.0452 16.8751 74.3552 17.2265C74.6858 17.5571 75.1198 17.7225 75.6572 17.7225C76.3392 17.7225 76.9385 17.5468 77.4552 17.1955L78.9122 21.3185Z" fill="#1A98C0"/>
<path d="M96.0002 5.19846V22.0005H90.1212V20.2025C89.5012 20.8845 88.7572 21.4011 87.8892 21.7525C87.0212 22.1038 86.1015 22.2795 85.1302 22.2795C82.9602 22.2795 81.2242 21.6388 79.9222 20.3575C78.6408 19.0761 78.0002 17.1541 78.0002 14.5915V5.19846H83.8902V13.6305C83.8902 14.8911 84.1278 15.8108 84.6032 16.3895C85.0785 16.9681 85.7708 17.2575 86.6802 17.2575C87.6102 17.2575 88.3645 16.9371 88.9432 16.2965C89.5425 15.6351 89.8422 14.6328 89.8422 13.2895V5.19846H96.0002Z" fill="#1A98C0"/>
<path d="M118.886 4.91946C120.953 4.91946 122.596 5.53946 123.815 6.77946C125.055 8.01946 125.675 9.88979 125.675 12.3905V22.0005H119.785V13.3515C119.785 12.1735 119.558 11.3055 119.103 10.7475C118.669 10.1895 118.049 9.91046 117.243 9.91046C116.354 9.91046 115.641 10.2205 115.104 10.8405C114.567 11.4605 114.298 12.4008 114.298 13.6615V22.0005H108.408V13.3515C108.408 11.0575 107.561 9.91046 105.866 9.91046C104.957 9.91046 104.233 10.2205 103.696 10.8405C103.159 11.4605 102.89 12.4008 102.89 13.6615V22.0005H97.0002V5.19846H102.611V6.96546C103.231 6.28346 103.965 5.77713 104.812 5.44646C105.68 5.09513 106.62 4.91946 107.633 4.91946C108.811 4.91946 109.865 5.13646 110.795 5.57046C111.725 6.00446 112.479 6.66579 113.058 7.55446C113.719 6.70713 114.556 6.05613 115.569 5.60146C116.582 5.14679 117.687 4.91946 118.886 4.91946Z" fill="#1A98C0"/>
<path d="M0.374224 9.67465C1.04762 6.91208 2.60718 4.45887 4.80459 2.70565C7.00199 0.952435 9.71091 0 12.5 0C15.2891 0 17.998 0.952435 20.1954 2.70565C22.3928 4.45887 23.9524 6.91208 24.6258 9.67465H23.5305C21.6828 9.64688 19.873 10.2105 18.3552 11.2864C18.2676 11.3511 18.1762 11.4102 18.0814 11.4634H17.9536C17.8589 11.4102 17.7674 11.3511 17.6798 11.2864C16.1486 10.2354 14.3452 9.67408 12.5 9.67408C10.6548 9.67408 8.85142 10.2354 7.32019 11.2864C7.2326 11.3511 7.14115 11.4102 7.04637 11.4634H6.91859C6.82381 11.4102 6.73236 11.3511 6.64476 11.2864C5.12699 10.2105 3.31719 9.64688 1.46951 9.67465H0.374224ZM21.559 15.5159C22.1212 15.069 22.8181 14.8352 23.5305 14.8545H25V11.864H23.5305C22.2757 11.8485 21.0495 12.2471 20.0347 13.0005C19.4636 13.4303 18.7727 13.6621 18.0632 13.6621C17.3536 13.6621 16.6627 13.4303 16.0916 13.0005C15.051 12.2612 13.8135 11.8648 12.5456 11.8648C11.2777 11.8648 10.0402 12.2612 8.99964 13.0005C8.42853 13.4303 7.73764 13.6621 7.02811 13.6621C6.31859 13.6621 5.62769 13.4303 5.05659 13.0005C4.02921 12.2375 2.7855 11.8383 1.51515 11.864H0V14.8545H1.46951C2.18192 14.8352 2.87878 15.069 3.44104 15.5159C4.47974 16.2558 5.71586 16.6525 6.98248 16.6525C8.24909 16.6525 9.48521 16.2558 10.5239 15.5159C11.0869 15.0704 11.7833 14.8367 12.4954 14.8545C13.2081 14.8336 13.9054 15.0676 14.467 15.5159C15.5076 16.2553 16.7451 16.6516 18.013 16.6516C19.2809 16.6516 20.5184 16.2553 21.559 15.5159ZM21.559 20.8635C22.1212 20.4165 22.8181 20.1827 23.5305 20.202H25V17.2115H23.5305C22.2757 17.196 21.0495 17.5946 20.0347 18.3481C19.4636 18.7778 18.7727 19.0097 18.0632 19.0097C17.3536 19.0097 16.6627 18.7778 16.0916 18.3481C15.051 17.6087 13.8135 17.2124 12.5456 17.2124C11.2777 17.2124 10.0402 17.6087 8.99964 18.3481C8.42853 18.7778 7.73764 19.0097 7.02811 19.0097C6.31859 19.0097 5.62769 18.7778 5.05659 18.3481C4.02921 17.585 2.7855 17.1859 1.51515 17.2115H0V20.202H1.46951C2.18192 20.1827 2.87878 20.4165 3.44104 20.8635C4.47974 21.6033 5.71586 22 6.98248 22C8.24909 22 9.48521 21.6033 10.5239 20.8635C11.0869 20.4179 11.7833 20.1843 12.4954 20.202C13.2081 20.1811 13.9054 20.4151 14.467 20.8635C15.5076 21.6028 16.7451 21.9992 18.013 21.9992C19.2809 21.9992 20.5184 21.6028 21.559 20.8635Z" fill="#1A98C0"/>
</svg>